<svg xmlns="http://www.w3.org/2000/svg" xmlns:xlink="http://www.w3.org/1999/xlink" width="500" zoomAndPan="magnify" viewBox="0 0 375 374.999991" height="500" preserveAspectRatio="xMidYMid meet" version="1.0"><defs><clipPath id="b7699f1c8b"><path d="M 14 39.230469 L 361 39.230469 L 361 335.480469 L 14 335.480469 Z M 14 39.230469 " clip-rule="nonzero"/></clipPath><clipPath id="5e4cd8ba64"><path d="M 342.597656 187.476562 L 350.359375 179.269531 C 364.253906 164.574219 364.253906 140.667969 350.359375 125.972656 L 279.230469 50.757812 C 272.335938 43.46875 263.128906 39.453125 253.308594 39.453125 C 243.488281 39.457031 234.28125 43.472656 227.390625 50.761719 L 220.355469 58.203125 L 213.316406 50.757812 C 206.425781 43.46875 197.21875 39.453125 187.398438 39.453125 C 177.574219 39.453125 168.371094 43.46875 161.476562 50.757812 L 154.433594 58.207031 L 147.378906 50.75 C 140.484375 43.464844 131.28125 39.453125 121.460938 39.453125 C 121.460938 39.453125 121.457031 39.453125 121.457031 39.453125 C 111.636719 39.453125 102.429688 43.46875 95.539062 50.757812 L 24.429688 125.972656 C 10.535156 140.667969 10.539062 164.574219 24.429688 179.265625 L 32.195312 187.472656 L 24.429688 195.683594 C 10.535156 210.378906 10.535156 234.285156 24.429688 248.980469 L 95.539062 324.191406 C 102.433594 331.484375 111.636719 335.5 121.457031 335.5 C 121.460938 335.5 121.460938 335.5 121.460938 335.5 C 131.28125 335.5 140.484375 331.488281 147.378906 324.199219 L 154.429688 316.742188 L 161.476562 324.195312 C 168.371094 331.484375 177.574219 335.5 187.394531 335.5 C 197.214844 335.5 206.421875 331.484375 213.3125 324.195312 L 220.351562 316.753906 L 227.386719 324.195312 C 234.28125 331.484375 243.484375 335.5 253.308594 335.5 C 263.128906 335.5 272.335938 331.484375 279.226562 324.195312 L 350.359375 248.980469 C 364.25 234.285156 364.25 210.378906 350.359375 195.683594 Z M 161.476562 281.765625 L 154.433594 289.210938 L 58.234375 187.476562 L 154.429688 85.742188 L 161.472656 93.191406 C 162.453125 94.226562 163.492188 95.179688 164.5625 96.082031 C 166.3125 97.558594 168.164062 98.867188 170.117188 99.96875 C 170.121094 99.972656 170.128906 99.976562 170.132812 99.976562 C 172.222656 101.15625 174.421875 102.113281 176.695312 102.835938 C 176.722656 102.847656 176.753906 102.851562 176.78125 102.859375 C 179.035156 103.570312 181.363281 104.058594 183.738281 104.304688 C 184.347656 104.367188 184.96875 104.367188 185.585938 104.398438 C 186.1875 104.429688 186.78125 104.492188 187.386719 104.492188 C 187.390625 104.492188 187.390625 104.492188 187.390625 104.492188 C 189.847656 104.492188 192.261719 104.238281 194.613281 103.75 C 201.667969 102.277344 208.140625 98.652344 213.3125 93.1875 L 219.8125 86.308594 L 220.351562 85.738281 L 316.554688 187.476562 L 220.355469 289.21875 L 213.3125 281.769531 C 206.417969 274.480469 197.214844 270.464844 187.394531 270.464844 C 187.390625 270.464844 187.390625 270.464844 187.390625 270.464844 C 177.574219 270.464844 168.367188 274.476562 161.476562 281.765625 Z M 241.136719 63.757812 C 244.417969 60.285156 248.742188 58.375 253.308594 58.375 C 257.875 58.375 262.199219 60.285156 265.484375 63.757812 L 336.613281 138.972656 C 343.730469 146.496094 343.730469 158.742188 336.613281 166.269531 L 329.582031 173.707031 L 233.375 71.96875 Z M 175.222656 63.757812 C 178.507812 60.285156 182.828125 58.371094 187.398438 58.371094 C 191.964844 58.371094 196.289062 60.285156 199.570312 63.753906 L 207.335938 71.96875 L 199.566406 80.183594 C 197.515625 82.355469 195.058594 83.917969 192.386719 84.78125 C 190.785156 85.300781 189.105469 85.570312 187.394531 85.570312 C 182.828125 85.570312 178.503906 83.660156 175.222656 80.1875 L 167.453125 71.972656 Z M 38.175781 166.265625 C 31.058594 158.738281 31.058594 146.496094 38.175781 138.96875 L 109.289062 63.757812 C 112.570312 60.285156 116.894531 58.371094 121.460938 58.371094 C 126.027344 58.371094 130.351562 60.28125 133.632812 63.753906 L 141.410156 71.976562 L 93.3125 122.84375 L 45.214844 173.707031 Z M 121.460938 316.582031 C 116.894531 316.582031 112.570312 314.667969 109.285156 311.195312 L 38.175781 235.984375 C 31.058594 228.457031 31.058594 216.210938 38.175781 208.683594 L 45.210938 201.242188 L 141.410156 302.976562 L 133.628906 311.199219 C 130.351562 314.671875 126.027344 316.582031 121.460938 316.582031 Z M 187.398438 316.582031 C 182.828125 316.582031 178.507812 314.667969 175.222656 311.195312 L 167.453125 302.976562 L 175.21875 294.761719 C 178.5 291.292969 182.828125 289.378906 187.394531 289.378906 C 191.960938 289.378906 196.285156 291.292969 199.566406 294.765625 L 207.339844 302.984375 L 199.570312 311.195312 C 196.289062 314.667969 191.964844 316.582031 187.398438 316.582031 Z M 336.613281 235.980469 L 265.480469 311.195312 C 262.199219 314.667969 257.875 316.578125 253.308594 316.578125 C 248.742188 316.578125 244.417969 314.667969 241.136719 311.195312 L 233.371094 302.984375 L 329.578125 201.242188 L 336.613281 208.683594 C 343.730469 216.207031 343.730469 228.457031 336.613281 235.980469 Z M 336.613281 235.980469 " clip-rule="nonzero"/></clipPath></defs><g clip-path="url(#b7699f1c8b)"><g clip-path="url(#5e4cd8ba64)"><path fill="#ffffff" d="M 10.605469 39.453125 L 10.605469 335.480469 L 364.253906 335.480469 L 364.253906 39.453125 Z M 10.605469 39.453125 " fill-opacity="1" fill-rule="nonzero"/></g></g></svg>